<?xml version="1.0" encoding="UTF-8"?>
<svg width="88px" height="72px" viewBox="0 0 88 72" version="1.1" xmlns="http://www.w3.org/2000/svg" xmlns:xlink="http://www.w3.org/1999/xlink">
    <!-- Generator: Sketch 50.2 (55047) - http://www.bohemiancoding.com/sketch -->
    <title>mu-feature-icon-secondary</title>
    <desc>Created with Sketch.</desc>
    <defs></defs>
    <g id="mu-feature-icon-secondary" stroke="none" stroke-width="1" fill="none" fill-rule="evenodd">
        <g id="icon" transform="translate(2.000000, -12.000000)">
            <polygon id="path" fill="#12CBC4" transform="translate(42.457031, 42.457031) rotate(-315.000000) translate(-42.457031, -42.457031) " points="25.777248 25.1321598 72.478686 12.4353765 60.3480758 60.3480758 12.4353765 72.478686"></polygon>
            <polygon id="path" fill="#12CBC4" opacity="0.3" transform="translate(42.457031, 53.457031) rotate(-315.000000) translate(-42.457031, -53.457031) " points="25.777248 36.1321598 72.478686 23.4353765 60.3480758 71.3480758 12.4353765 83.478686"></polygon>
            <g transform="translate(34.000000, 36.000000)" id="arrow" stroke="#147183" stroke-width="1.3">
                <g transform="translate(10.000000, 10.500000) rotate(-180.000000) translate(-10.000000, -10.500000) translate(4.000000, 7.000000)">
                    <path d="M11.5,3.5 L0.5,3.5" stroke-linecap="square"></path>
                    <polyline transform="translate(3.414214, 3.414214) rotate(-315.000000) translate(-3.414214, -3.414214) " points="5.82842712 5.82842712 1 5.82842712 1 1"></polyline>
                </g>
                <g>
                    <path d="M11.5,3.5 L0.5,3.5" stroke-linecap="square"></path>
                    <polyline transform="translate(3.414214, 3.414214) rotate(-315.000000) translate(-3.414214, -3.414214) " points="5.82842712 5.82842712 1 5.82842712 1 1"></polyline>
                </g>
            </g>
        </g>
    </g>
</svg>