<?xml version="1.0" encoding="UTF-8" standalone="no"?>
<svg
   xmlns:dc="http://purl.org/dc/elements/1.1/"
   xmlns:cc="http://creativecommons.org/ns#"
   xmlns:rdf="http://www.w3.org/1999/02/22-rdf-syntax-ns#"
   xmlns:svg="http://www.w3.org/2000/svg"
   xmlns="http://www.w3.org/2000/svg"
   xmlns:sodipodi="http://sodipodi.sourceforge.net/DTD/sodipodi-0.dtd"
   xmlns:inkscape="http://www.inkscape.org/namespaces/inkscape"
   width="36"
   height="36"
   viewBox="0 0 36.000001 35.999999"
   version="1.1"
   id="svg2"
   inkscape:version="0.91 r13725"
   sodipodi:docname="light-sidebar-brand.svg">
  <metadata
     id="metadata16">
    <rdf:RDF>
      <cc:Work
         rdf:about="">
        <dc:format>image/svg+xml</dc:format>
        <dc:type
           rdf:resource="http://purl.org/dc/dcmitype/StillImage" />
        <dc:title>mu-scala</dc:title>
      </cc:Work>
    </rdf:RDF>
  </metadata>
  <defs
     id="defs14" />
  <sodipodi:namedview
     pagecolor="#ffffff"
     bordercolor="#666666"
     borderopacity="1"
     objecttolerance="10"
     gridtolerance="10"
     guidetolerance="10"
     inkscape:pageopacity="0"
     inkscape:pageshadow="2"
     inkscape:window-width="1684"
     inkscape:window-height="970"
     id="namedview12"
     showgrid="false"
     fit-margin-top="0"
     fit-margin-left="0"
     fit-margin-right="0"
     fit-margin-bottom="0"
     inkscape:zoom="12.173272"
     inkscape:cx="21.032149"
     inkscape:cy="11.578643"
     inkscape:window-x="2945"
     inkscape:window-y="168"
     inkscape:window-maximized="0"
     inkscape:current-layer="svg2" />
  <title
     id="title4">mu-scala</title>
  <g
     id="mu-scala"
     style="fill:none;fill-rule:evenodd;stroke:none;stroke-width:1"
     transform="matrix(0.2157423,0,0,0.2157423,3.5685154,-0.24470605)">
    <path
       d="M 128.50244,38.134279 65.996,2 l 0,0 -62.498583,36.134252 c -0.4781246,0.276433 -0.6416279,0.888123 -0.3651948,1.366247 0.087659,0.151617 0.2135991,0.277554 0.3652183,0.365209 L 66,76 l 0,0 62.50247,-36.134238 c 0.47813,-0.27642 0.64165,-0.888106 0.36523,-1.366238 -0.0877,-0.151635 -0.21362,-0.277585 -0.36526,-0.365245 z"
       id="path"
       inkscape:connector-curvature="0"
       style="stroke:#f44336;stroke-width:2" />
    <polygon
       id="polygon8"
       points="66,113 130,76.004005 130,71.386014 129.976,39.104135 65.996,76 2,39 2.0039995,76 "
       style="fill:#f44336" />
    <polygon
       id="polygon10"
       points="66,168 130,131.00401 130,126.38601 129.976,94.104135 65.996,131 2,94 2.0039995,131 "
       style="fill:#f44336" />
  </g>
</svg>
